<?xml version="1.0" encoding="utf-8"?>
<!DOCTYPE svg PUBLIC "-//W3C//DTD SVG 1.0//EN" "http://www.w3.org/TR/2001/REC-SVG-20010904/DTD/svg10.dtd">
<svg version="1.0" xmlns="http://www.w3.org/2000/svg" width="2760px" height="1540px" viewBox="0 0 2760 1540" preserveAspectRatio="xMidYMid meet">
 <g fill="#f9f9f9">
  <path d="M0 770.23 l0 -770.23 1380 0 1380 0 0 770.23 0 770.23 -1380 0 -1380 0 0 -770.23z m1405.27 403.17 c16.25 -5.62 39.11 -19.26 68 -40.32 40.12 -29.49 64.79 -39.51 92.47 -37.31 16.25 1.20 21.86 3.61 35.90 15.44 5.62 4.61 15.44 11.23 22.06 14.64 10.63 5.62 13.84 6.42 28.08 6.22 28.68 0 57.57 -14.04 87.05 -42.32 13.64 -13.04 16.65 -17.05 14.84 -18.85 -2.01 -2.01 -5.62 0.40 -17.05 11.63 -16.65 16.05 -34.90 28.48 -51.55 35.10 -9.03 3.41 -15.44 4.41 -32.29 4.41 -19.06 0.20 -22.06 -0.20 -31.09 -5.22 -5.42 -3.01 -14.44 -9.23 -20.06 -13.84 -34.30 -28.88 -65.39 -23.27 -130.38 23.07 -48.14 34.50 -66.39 42.92 -89.66 40.72 -14.24 -1.20 -20.26 -5.01 -25.47 -15.24 -5.22 -10.03 -14.44 -17.65 -23.47 -19.46 -16.25 -3.01 -47.74 6.22 -76.22 22.47 -18.65 10.63 -20.46 12.03 -17.65 14.84 1.40 1.40 6.42 -0.40 15.85 -5.82 20.66 -12.03 45.13 -20.26 64.19 -21.66 20.86 -1.40 25.27 0.60 32.49 13.84 4.61 8.63 7.62 11.63 16.45 16.25 13.04 6.42 21.66 6.82 37.51 1.40z m-203.59 -16.85 c6.22 -8.02 47.74 -41.92 65.99 -54.36 17.05 -11.43 48.74 -27.88 58.17 -30.09 l5.01 -1.20 -0.60 -35.10 c-0.80 -38.71 1.81 -58.37 10.63 -78.23 8.83 -19.86 11.43 -22.26 25.47 -23.87 17.25 -2.01 61.78 -13.24 78.83 -20.06 37.91 -15.04 60.98 -29.28 86.65 -53.96 l17.65 -16.85 -16.05 -1.20 c-34.10 -2.81 -33.50 -2.61 -32.69 -10.63 l0.60 -7.02 26.08 -8.63 c47.74 -15.85 76.62 -30.29 107.11 -53.76 20.86 -16.25 46.53 -50.15 57.37 -76.02 l3.01 -7.62 -6.42 1.40 c-3.61 0.60 -7.42 2.01 -8.42 2.81 -1.20 1 -8.22 1.81 -15.65 1.81 l-13.64 0 0 -6.82 c0 -6.22 1.60 -8.02 16.65 -19.86 51.75 -40.52 82.24 -89.26 93.87 -150.24 5.42 -28.88 4.61 -69 -2.21 -103.70 -5.22 -26.08 -3.21 -25.88 -20.06 -2.01 -12.64 17.85 -51.55 56.16 -75.22 74.22 -11.03 8.42 -39.11 27.88 -62.38 43.33 -62.98 42.12 -85.25 61.78 -107.71 95.48 -9.63 14.24 -10.83 15.44 -17.25 15.44 l-6.82 0 1.20 -22.26 1.40 -22.26 -5.62 3.41 c-26.28 16.65 -61.18 50.35 -77.02 74.22 -18.25 27.88 -31.49 59.17 -37.91 90.86 -2.61 12.24 -2.81 12.44 -9.23 12.44 -8.02 0 -9.43 -2.61 -14.44 -27.68 l-3.21 -16.65 -10.43 17.65 c-30.09 51.75 -36.10 97.68 -20.66 156.45 3.41 12.44 6.02 24.67 6.02 27.48 0 10.83 -41.32 47.94 -71.61 64.59 -25.07 13.44 -22.47 6.82 -23.47 61.98 -0.60 37.91 -1.81 52.75 -5.01 70.20 -6.42 33.50 -7.22 41.12 -4.21 41.12 1.40 0 4.21 -2.21 6.22 -4.81z m236.49 -108.31 c19.66 -20.66 43.93 -40.32 107.11 -87.45 136.19 -101.29 190.55 -165.68 214.22 -253.53 5.42 -19.66 6.42 -66.79 1.81 -86.45 l-2.61 -11.83 -3.21 5.82 c-2.41 4.81 -3.01 12.84 -2.61 41.12 0.20 31.29 -0.20 37.31 -4.61 55.16 -8.22 33.70 -24.47 66.79 -47.94 98.49 -13.44 17.85 -60.98 66.79 -86.65 88.86 -11.03 9.43 -38.11 30.89 -59.97 47.34 -75.62 56.97 -94.47 72.01 -116.34 93.67 -18.05 17.65 -23.27 21.66 -28.08 21.66 -4.61 0 -10.23 -4.01 -27.48 -20.26 -18.65 -17.25 -21.86 -19.46 -21.86 -15.44 0 3.21 4.41 8.63 14.84 18.25 8.22 7.42 19.26 19.06 24.47 25.67 l9.63 12.03 7.02 -8.63 c4.01 -4.81 13.84 -15.65 22.26 -24.47z m-193.56 -114.93 c0 -1.20 -6.82 -7.42 -15.04 -13.64 -42.72 -32.90 -93.67 -83.24 -116.94 -115.53 -17.85 -24.87 -36.10 -61.78 -42.92 -87.05 -4.81 -18.45 -5.42 -23.27 -5.42 -57.17 0 -40.92 2.21 -52.95 14.64 -82.24 17.65 -41.32 54.56 -78.23 94.88 -94.47 23.87 -9.83 42.12 -12.44 78.63 -11.43 28.28 0.80 34.50 1.60 49.34 6.62 21.46 7.02 35.50 14.04 52.15 26.28 17.85 13.04 34.30 30.49 45.53 48.14 l9.23 14.84 5.01 -8.63 c23.27 -39.11 60.38 -68.60 104.10 -82.04 11.43 -3.61 19.86 -4.41 52.35 -4.81 29.28 -0.60 39.72 -1.40 42.72 -3.61 5.01 -3.41 3.81 -4.21 -11.03 -7.02 -16.85 -3.01 -46.53 -2.81 -62.98 0.80 -42.52 8.83 -74.82 27.08 -105.71 59.57 -9.43 9.83 -17.05 18.65 -17.05 19.86 0 1 -3.01 1.81 -6.82 1.81 -5.82 0 -8.22 -1.81 -18.45 -14.24 -25.27 -30.49 -64.59 -54.96 -104.10 -65.19 -18.05 -4.61 -22.67 -5.01 -46.13 -4.01 -25.47 1 -48.14 5.42 -60.98 12.03 -2.81 1.40 -11.23 5.62 -18.65 9.03 -18.45 8.63 -43.53 27.88 -57.17 43.93 -23.47 27.68 -36.31 51.95 -46.13 88.26 -4.81 16.65 -5.42 23.07 -5.42 45.53 0.20 27.48 3.01 43.93 11.83 70.40 9.43 28.28 32.29 68.40 52.75 93.07 14.44 17.45 53.76 56.97 74.62 75.22 39.72 34.70 53.15 43.73 53.15 35.70z m-56.16 -240.10 c3.21 -2.41 3.41 -3.21 1.20 -6.02 -3.81 -4.41 -56.56 -4.81 -60.17 -0.40 -2.01 2.21 -1.40 3.41 2.21 6.02 6.02 4.41 50.95 4.61 56.76 0.40z m18.45 -52.55 c0.40 -1 -9.23 -11.63 -21.46 -23.87 -17.85 -17.85 -22.06 -21.26 -23.27 -18.25 -1 2.81 3.61 8.42 19.46 24.47 19.46 19.46 23.67 22.47 25.27 17.65z m128.17 -42.12 c-1.20 -3.01 -5.22 0.20 -23.27 18.25 -17.45 17.45 -21.46 22.47 -19.66 24.67 3.41 4.01 44.93 -37.71 42.92 -42.92z m-81.44 -6.82 c0 -21.46 -0.60 -28.08 -2.81 -29.89 -5.22 -4.41 -7.22 4.21 -7.22 29.89 0 25.67 2.01 34.30 7.22 29.89 2.21 -1.81 2.81 -8.42 2.81 -29.89z"/>
  <path d="M1239.59 1098.18 c0 -10.03 23.27 -52.55 29.49 -54.16 2.61 -0.60 6.02 -3.41 7.82 -6.22 4.01 -5.82 1.81 -13.24 -5.22 -16.85 -6.22 -3.41 -14.04 5.22 -14.04 15.65 0 6.02 -3.61 14.44 -15.44 36.31 -15.44 27.68 -15.85 28.28 -22.47 28.28 l-6.82 0 1.81 -15.44 c1 -8.63 1.81 -30.69 1.81 -49.14 l0 -33.50 14.04 -8.42 c37.31 -22.47 55.76 -39.31 87.25 -80.03 56.76 -73.21 79.43 -98.08 196.37 -214.62 54.76 -54.56 94.47 -94.67 88.46 -89.06 -6.02 5.62 -33.10 30.49 -60.17 55.16 -85.85 78.43 -157.66 152.64 -203.59 211.01 -19.06 24.07 -20.46 25.27 -27.48 25.47 l-7.22 0 -3.61 -14.44 c-7.82 -32.69 -5.62 -83.04 4.81 -114.13 3.61 -10.43 4.01 -10.83 11.83 -11.43 8.02 -0.60 8.02 -0.60 12.44 10.03 6.02 14.84 19.86 36.10 22.87 35.10 1.40 -0.40 3.01 -7.42 3.81 -18.65 5.62 -66.79 32.09 -125.97 73.41 -163.27 11.03 -10.03 14.64 -12.03 20.66 -12.03 l7.22 0 3.21 23.67 c3.41 23.67 7.02 38.51 9.43 38.51 0.60 0 4.21 -7.82 8.02 -17.25 7.62 -19.66 23.27 -45.73 37.51 -62.38 17.25 -20.26 42.92 -40.72 90.26 -72.21 55.56 -36.51 80.23 -55.96 110.32 -86.45 20.66 -20.86 22.87 -22.67 29.08 -22.06 6.42 0.60 6.62 1 8.02 10.63 2.01 16.05 1.81 58.17 -0.60 73.81 -5.42 36.31 -17.45 68.60 -36.10 95.88 -22.26 33.10 -72.21 74.22 -109.72 90.06 -20.46 8.83 -7.02 13.04 35.30 11.03 l28.48 -1.20 0 6.22 c0 8.02 -12.84 27.28 -28.08 42.12 -19.86 19.66 -45.13 34.90 -89.26 54.16 -10.03 4.21 -45.13 14.84 -76.22 22.67 l-33.90 8.83 22.87 7.22 c12.64 4.01 29.69 8.83 37.71 10.83 14.24 3.41 14.44 3.41 14.44 9.83 0 5.82 -1.60 7.82 -12.44 15.65 -19.86 14.04 -40.72 24.47 -66.79 33.10 -23.07 7.62 -69.20 18.25 -79.83 18.25 -5.22 0 -12.03 7.02 -21.06 22.26 -13.84 23.07 -21.66 61.38 -19.46 97.08 l1.40 22.06 -15.44 6.82 c-8.42 3.81 -24.07 12.64 -34.70 19.66 -12.03 7.82 -21.26 12.64 -24.87 12.64 -5.01 0 -5.62 -0.60 -5.62 -7.02z"/>
 </g>
 <g fill="#15224a">
  <path d="M1361.75 1178.01 c-8.83 -4.61 -11.83 -7.62 -16.45 -16.25 -3.61 -6.82 -7.82 -11.43 -11.03 -12.64 -12.64 -4.81 -46.94 5.01 -75.42 21.46 -16.85 9.83 -23.07 10.43 -28.08 2.41 -4.41 -7.02 0.80 -13.64 18.65 -23.87 25.47 -14.64 47.74 -22.06 69.40 -23.27 26.08 -1.60 31.89 1.40 45.73 23.47 6.82 10.63 18.05 13.64 34.30 9.23 16.45 -4.61 30.89 -12.84 66.39 -38.51 44.33 -31.49 66.59 -40.92 97.28 -40.92 17.65 0 29.49 4.61 45.13 17.85 17.65 14.84 27.88 19.26 45.13 19.06 25.67 -0.20 53.56 -14.84 80.23 -41.72 14.04 -14.44 20.46 -16.65 27.08 -9.23 5.82 6.42 2.21 13.64 -15.85 31.09 -18.25 17.45 -37.11 29.89 -57.37 37.31 -10.83 3.81 -16.85 4.81 -35.10 4.81 -21.06 0 -22.67 -0.40 -34.10 -6.42 -6.62 -3.41 -16.45 -10.03 -22.06 -14.64 -12.44 -10.63 -17.85 -13.24 -29.28 -15.04 -20.66 -3.01 -48.94 8.83 -87.05 36.91 -44.73 32.69 -69 44.33 -93.27 44.33 -10.63 0 -15.65 -1.20 -24.27 -5.42z"/>
  <path d="M1188.44 1167.38 c-3.61 -4.01 -3.61 -5.01 1.60 -33.70 8.22 -45.73 10.03 -66.19 9.03 -103.10 -1.20 -39.11 -3.81 -33.70 23.47 -48.94 21.06 -11.83 41.92 -27.88 57.77 -44.93 l13.04 -13.64 -5.62 -21.26 c-7.62 -28.28 -10.43 -57.17 -7.82 -81.44 3.61 -35.30 10.83 -56.76 30.49 -89.66 9.83 -16.85 13.04 -20.66 16.85 -20.66 3.81 0 4.61 1 4.61 6.62 0 7.82 4.81 30.29 8.02 38.51 2.41 5.82 2.61 5.62 6.22 -10.03 9.03 -37.31 23.67 -69.80 43.93 -97.08 14.44 -19.26 43.33 -46.74 63.18 -60.17 13.84 -9.23 24.27 -14.04 25.88 -12.03 0.20 0.40 -0.20 10.23 -1.20 21.86 -1 11.43 -1.40 22.06 -1.20 23.47 0.40 1.60 5.22 -4.21 11.03 -12.84 22.47 -33.70 44.73 -53.35 107.71 -95.48 64.99 -43.13 92.67 -65.59 121.95 -98.69 8.63 -9.83 20.06 -24.67 25.07 -32.49 13.04 -20.26 15.04 -19.66 20.46 5.82 7.02 34.30 8.22 45.53 8.22 76.22 0 83.24 -31.89 148.03 -98.28 199.98 l-17.05 13.24 7.62 0.60 c4.21 0.40 8.83 -0.20 10.03 -1.20 3.41 -2.61 29.08 -7.42 30.69 -5.82 2.21 2.21 -8.63 27.88 -19.26 45.53 -29.08 48.34 -73.41 79.43 -149.43 104.70 -13.24 4.21 -25.27 8.22 -26.88 8.83 -6.02 2.01 0.80 3.41 28.28 5.62 l28.68 2.41 -22.06 22.06 c-29.69 29.69 -51.15 43.73 -92.27 59.97 -17.05 6.82 -61.58 18.05 -78.83 20.06 -14.04 1.60 -16.65 4.01 -25.47 23.87 -9.03 20.46 -11.63 40.52 -10.43 78.83 l1 34.30 -5.22 1.40 c-9.83 2.21 -41.12 18.45 -58.57 30.09 -18.05 12.24 -56.76 43.93 -67.80 55.96 -7.62 8.22 -12.24 9.03 -17.45 3.21z m110.12 -100.49 l15.04 -6.82 -1.20 -19.26 c-2.21 -34.70 5.62 -75.02 18.85 -98.08 9.43 -16.25 16.65 -24.07 22.06 -24.07 10.63 0 56.76 -10.63 79.83 -18.25 26.08 -8.63 46.94 -19.06 67.19 -33.50 l12.84 -9.23 -6.82 -1.60 c-18.45 -4.41 -56.36 -16.05 -66.79 -20.26 -11.23 -4.61 -11.43 -4.81 -7.62 -8.22 2.01 -2.01 19.46 -7.42 38.71 -12.44 31.69 -8.02 66.79 -18.65 76.82 -22.87 57.97 -25.27 88.06 -46.74 108.72 -77.22 l8.02 -12.03 -34.70 0 c-32.90 0 -35.10 -0.20 -39.11 -4.21 -6.82 -6.82 -3.61 -12.24 11.43 -19.06 39.72 -18.05 86.85 -56.76 108.92 -89.86 27.08 -39.92 40.12 -88.66 37.71 -140.01 -0.60 -13.64 -1.81 -25.67 -2.41 -26.88 -0.80 -1.20 -11.03 7.82 -23.67 20.66 -30.09 30.49 -54.76 49.74 -110.32 86.45 -25.47 17.05 -53.96 37.31 -62.98 45.33 -30.49 26.68 -50.75 54.76 -65.59 91.06 -10.63 26.48 -12.44 29.49 -15.24 25.47 -5.22 -7.62 -10.23 -26.08 -13.44 -48.14 -1.81 -13.24 -3.81 -24.07 -4.41 -24.07 -0.80 0 -7.22 5.42 -14.64 12.03 -41.12 37.11 -68.40 97.48 -73.01 161.67 -2.61 35.90 -15.85 33.10 -35.50 -7.62 -4.61 -9.63 -9.23 -17.25 -10.23 -17.05 -2.81 1 -8.83 19.86 -12.44 39.31 -2.21 12.03 -3.01 23.67 -2.21 38.31 0.80 21.06 6.42 50.95 9.23 49.74 0.80 -0.40 11.23 -12.84 23.27 -27.68 50.15 -62.38 116.34 -130.58 212.62 -218.63 98.69 -90.26 117.74 -106.91 122.35 -105.91 2.21 0.40 0.20 4.21 -7.62 14.04 -24.47 30.49 -53.96 61.58 -132.78 138.80 -108.11 106.31 -148.23 150.03 -205.60 223.85 -31.69 40.72 -50.55 57.97 -87.45 80.03 l-14.24 8.42 1 24.47 c0.40 13.44 -0.20 32.69 -1.20 42.52 -1.20 10.03 -1.81 18.25 -1.60 18.45 0.20 0.20 7.02 -12.03 15.24 -27.08 10.43 -18.85 14.84 -29.08 14.44 -32.90 -0.80 -6.42 4.21 -16.85 9.43 -19.66 10.83 -5.62 24.47 0.80 27.48 13.04 1.81 7.42 -3.81 18.85 -10.83 21.46 -4.21 1.60 -8.63 7.62 -18.05 24.87 -6.82 12.44 -12.44 23.07 -12.44 23.47 0 0.60 8.42 -4.81 18.85 -11.63 10.43 -6.82 25.67 -15.44 34.10 -19.26z"/>
  <path d="M1396.45 1079.33 c-6.82 -8.83 -19.06 -22.06 -27.48 -29.49 l-15.04 -13.84 0 -13.44 c0 -10.83 0.60 -13.64 3.01 -13.64 2.61 0 14.04 9.83 43.13 37.51 l9.23 8.63 22.06 -21.66 c21.86 -21.66 40.72 -36.71 116.34 -93.67 21.86 -16.45 48.94 -37.91 59.97 -47.34 25.67 -22.06 73.21 -71.01 86.65 -88.86 23.87 -32.09 39.72 -64.99 48.14 -99.49 4.81 -19.66 5.01 -23.47 4.01 -54.36 l-1 -33.30 5.82 -10.43 c3.21 -5.62 7.22 -10.23 8.83 -10.23 10.03 0 14.04 85.65 5.42 117.54 -18.65 69 -57.97 124.56 -134.99 191.35 -15.04 13.04 -50.75 40.92 -79.23 62.18 -81.03 60.38 -108.72 84.85 -132.99 116.94 -4.81 6.22 -8.83 11.43 -9.23 11.43 -0.20 0 -5.82 -7.22 -12.64 -15.85z"/>
  <path d="M1222.14 933.91 c-36.31 -28.08 -86.25 -75.42 -111.32 -105.51 -21.46 -25.88 -43.93 -65.99 -53.56 -96.08 -9.03 -27.48 -11.23 -42.72 -11.23 -75.42 0.20 -26.28 0.80 -32.49 5.62 -49.54 9.83 -36.31 22.67 -60.58 46.13 -88.26 13.64 -16.05 38.71 -35.30 57.17 -43.93 7.42 -3.41 15.85 -7.62 18.65 -9.03 14.44 -7.42 35.10 -11.23 66.99 -12.24 29.69 -0.80 33.50 -0.60 52.15 4.21 39.51 10.03 78.83 34.70 103.90 65.19 l11.83 14.04 7.62 -9.43 c29.49 -37.11 69.80 -61.78 116.74 -71.61 26.68 -5.62 75.82 -3.21 96.68 5.01 l6.02 2.21 -13.24 8.83 c-12.64 8.42 -13.44 8.63 -21.86 6.62 -14.04 -3.21 -60.58 -0.80 -76.62 4.01 -46.53 14.04 -83.84 45.33 -110.12 92.47 -1.81 3.41 -4.21 6.22 -5.01 6.22 -0.80 -0.20 -6.62 -8.42 -12.64 -18.25 -23.47 -38.71 -56.97 -64.99 -100.29 -79.03 -22.67 -7.22 -61.18 -9.23 -85.85 -4.21 -65.19 13.24 -116.14 63.38 -135.19 133.39 -3.41 12.44 -4.21 21.06 -4.21 46.33 0 27.28 0.60 33.50 5.22 51.15 6.82 25.27 24.87 61.98 42.92 86.85 23.87 33.30 76.42 84.85 120.35 118.34 9.03 6.82 17.05 13.44 17.85 14.84 1.60 2.41 -11.63 15.65 -15.65 15.65 -1.40 0 -10.03 -5.82 -19.06 -12.84z"/>
  <path d="M1124.26 697.02 c-5.82 -5.62 -6.22 -8.42 -1.81 -14.64 3.01 -4.21 4.21 -4.41 36.91 -4.41 32.69 0 33.90 0.20 36.91 4.41 4.21 6.02 4.01 10.83 -0.80 15.65 -3.61 3.61 -6.62 4.01 -35.10 4.01 -30.49 0 -31.29 -0.20 -36.10 -5.01z"/>
  <path d="M1177.01 630.43 c-12.03 -11.83 -22.26 -23.67 -23.07 -26.28 -2.01 -8.02 2.41 -14.44 10.03 -14.44 5.82 0 9.43 2.81 29.08 22.67 23.67 24.07 25.88 28.08 18.45 35.50 -7.22 7.22 -11.43 5.22 -34.50 -17.45z"/>
  <path d="M1286.53 646.88 c-3.61 -3.81 -4.61 -6.22 -3.81 -9.63 0.80 -2.41 11.03 -14.04 22.67 -25.88 18.65 -18.85 22.26 -21.66 28.08 -21.66 7.42 0 11.83 6.42 9.83 14.44 -1.60 6.02 -43.73 47.74 -48.34 47.74 -1.81 0 -5.62 -2.21 -8.42 -5.01z"/>
  <path d="M1241.60 627.82 c-3.61 -3.61 -4.01 -6.62 -4.01 -35.30 0 -17.65 0.80 -32.90 2.01 -35.10 2.41 -4.41 13.64 -5.42 17.65 -1.40 1.60 1.60 2.41 12.64 2.41 35.90 0 32.49 -0.20 33.70 -4.41 36.71 -6.02 4.21 -8.83 4.01 -13.64 -0.80z"/>
 </g>
</svg>